<mxfile host="65bd71144e">
    <diagram id="sHc_wFPXRGP4sv5DglS8" name="Page-1">
        <mxGraphModel dx="1228" dy="-1053" grid="0" gridSize="10" guides="1" tooltips="1" connect="1" arrows="1" fold="1" page="1" pageScale="1" pageWidth="827" pageHeight="1169" math="0" shadow="0">
            <root>
                <mxCell id="0"/>
                <mxCell id="1" parent="0"/>
                <mxCell id="bliNERrWOuEoGm0JILIC-1" value="" style="ellipse;whiteSpace=wrap;html=1;aspect=fixed;sketch=1;curveFitting=1;jiggle=2;fillStyle=cross-hatch;fillColor=#A680B8;" parent="1" vertex="1">
                    <mxGeometry x="177.5" y="2459" width="127" height="127" as="geometry"/>
                </mxCell>
                <mxCell id="bliNERrWOuEoGm0JILIC-2" value="複雑な現実" style="rounded=1;whiteSpace=wrap;html=1;movable=1;resizable=1;rotatable=1;deletable=1;editable=1;locked=0;connectable=1;" parent="1" vertex="1">
                    <mxGeometry x="171" y="2384" width="154" height="34" as="geometry"/>
                </mxCell>
                <mxCell id="bliNERrWOuEoGm0JILIC-3" value="モデル" style="rounded=1;whiteSpace=wrap;html=1;movable=1;resizable=1;rotatable=1;deletable=1;editable=1;locked=0;connectable=1;" parent="1" vertex="1">
                    <mxGeometry x="454.5" y="2384" width="154" height="34" as="geometry"/>
                </mxCell>
                <mxCell id="bliNERrWOuEoGm0JILIC-4" value="" style="triangle;whiteSpace=wrap;html=1;fillColor=#000000;" parent="1" vertex="1">
                    <mxGeometry x="365.66" y="2478" width="49.69" height="87" as="geometry"/>
                </mxCell>
                <mxCell id="bliNERrWOuEoGm0JILIC-6" value="" style="ellipse;whiteSpace=wrap;html=1;aspect=fixed;fillStyle=auto;fillColor=#e1d5e7;strokeColor=#9673a6;" parent="1" vertex="1">
                    <mxGeometry x="469.5" y="2455" width="127" height="127" as="geometry"/>
                </mxCell>
                <mxCell id="bliNERrWOuEoGm0JILIC-10" value="重要な特徴を取り出して&lt;br&gt;シミュレート" style="text;html=1;align=center;verticalAlign=middle;resizable=0;points=[];autosize=1;strokeColor=none;fillColor=none;" parent="1" vertex="1">
                    <mxGeometry x="315.5" y="2437" width="150" height="41" as="geometry"/>
                </mxCell>
            </root>
        </mxGraphModel>
    </diagram>
</mxfile>